<svg width="24" height="24" viewBox="0 0 24 24" fill="none" xmlns="http://www.w3.org/2000/svg">
<path d="M12 3L12 21" stroke="black" stroke-width="1.5" stroke-linecap="round" stroke-linejoin="round"/>
<path d="M17.4142 6.26777L16.8286 5.79925L16.8286 5.79925L17.4142 6.26777ZM18.75 2C18.75 1.58579 18.4142 1.25 18 1.25C17.5858 1.25 17.25 1.58579 17.25 2H18H18.75ZM6.75 2C6.75 1.58579 6.41421 1.25 6 1.25C5.58579 1.25 5.25 1.58579 5.25 2H6H6.75ZM6.58579 6.26777L6.00013 6.73629L6.00013 6.73629L6.58579 6.26777ZM12.75 7C12.75 6.58579 12.4142 6.25 12 6.25C11.5858 6.25 11.25 6.58579 11.25 7H12H12.75ZM11.25 12C11.25 12.4142 11.5858 12.75 12 12.75C12.4142 12.75 12.75 12.4142 12.75 12H12H11.25ZM10 7V7.75H14V7V6.25H10V7ZM14 7V7.75C14.9165 7.75 15.6978 7.75246 16.3188 7.6481C16.9816 7.53672 17.5569 7.28998 17.9999 6.73629L17.4142 6.26777L16.8286 5.79925C16.6857 5.97779 16.4967 6.09717 16.0702 6.16884C15.602 6.24754 14.9691 6.25 14 6.25V7ZM18 2H17.25C17.25 3.19556 17.249 4.03172 17.1811 4.66297C17.114 5.28669 16.9907 5.59657 16.8286 5.79925L17.4142 6.26777L17.9999 6.73629C18.4235 6.20673 18.5931 5.56124 18.6725 4.82338C18.751 4.09307 18.75 3.16147 18.75 2H18ZM6 2H5.25C5.25 3.16147 5.24897 4.09307 5.32752 4.82338C5.40689 5.56124 5.57649 6.20673 6.00013 6.73629L6.58579 6.26777L7.17144 5.79925C7.0093 5.59657 6.88601 5.28669 6.81892 4.66297C6.75103 4.03172 6.75 3.19556 6.75 2H6ZM10 7V6.25C9.03089 6.25 8.39801 6.24754 7.92976 6.16884C7.50326 6.09717 7.31427 5.97779 7.17144 5.79925L6.58579 6.26777L6.00013 6.73629C6.44309 7.28998 7.0184 7.53672 7.68116 7.6481C8.30216 7.75246 9.08349 7.75 10 7.75V7ZM12 7H11.25V12H12H12.75V7H12Z" fill="black"/>
<path d="M6.58579 17.7322L7.17144 18.2008L7.17144 18.2008L6.58579 17.7322ZM5.25 22C5.25 22.4142 5.58579 22.75 6 22.75C6.41421 22.75 6.75 22.4142 6.75 22H6H5.25ZM17.25 22C17.25 22.4142 17.5858 22.75 18 22.75C18.4142 22.75 18.75 22.4142 18.75 22H18H17.25ZM17.4142 17.7322L17.9999 17.2637L17.9999 17.2637L17.4142 17.7322ZM11.25 17C11.25 17.4142 11.5858 17.75 12 17.75C12.4142 17.75 12.75 17.4142 12.75 17H12H11.25ZM12.75 12C12.75 11.5858 12.4142 11.25 12 11.25C11.5858 11.25 11.25 11.5858 11.25 12H12H12.75ZM14 17V16.25H10V17V17.75H14V17ZM10 17V16.25C9.08349 16.25 8.30216 16.2475 7.68116 16.3519C7.0184 16.4633 6.44309 16.71 6.00014 17.2637L6.58579 17.7322L7.17144 18.2008C7.31427 18.0222 7.50326 17.9028 7.92976 17.8312C8.39801 17.7525 9.03089 17.75 10 17.75V17ZM6 22H6.75C6.75 20.8044 6.75103 19.9683 6.81892 19.337C6.88601 18.7133 7.0093 18.4034 7.17144 18.2008L6.58579 17.7322L6.00014 17.2637C5.57649 17.7933 5.40689 18.4388 5.32752 19.1766C5.24897 19.9069 5.25 20.8385 5.25 22H6ZM18 22H18.75C18.75 20.8385 18.751 19.9069 18.6725 19.1766C18.5931 18.4388 18.4235 17.7933 17.9999 17.2637L17.4142 17.7322L16.8286 18.2008C16.9907 18.4034 17.114 18.7133 17.1811 19.337C17.249 19.9683 17.25 20.8044 17.25 22H18ZM14 17V17.75C14.9691 17.75 15.602 17.7525 16.0702 17.8312C16.4967 17.9028 16.6857 18.0222 16.8286 18.2008L17.4142 17.7322L17.9999 17.2637C17.5569 16.71 16.9816 16.4633 16.3188 16.3519C15.6978 16.2475 14.9165 16.25 14 16.25V17ZM12 17H12.75V14.5H12H11.25V17H12ZM12 14.5H12.75V12H12H11.25V14.5H12Z" fill="black"/>
</svg>
