<svg width="24" height="24" viewBox="0 0 24 24" fill="none" xmlns="http://www.w3.org/2000/svg">
<path d="M9 21H18.6547C21.1755 21 22.4359 21 22.8711 20.1706C23.3063 19.3412 22.6107 18.2648 21.2196 16.112L13.9356 4.83965C13.1392 3.60728 12.7411 2.9911 12.1798 3.0001C10.9531 3.01976 9.5 6 9 7" stroke="black" stroke-width="1.5" stroke-linecap="round" stroke-linejoin="round"/>
<path d="M15 21H5.34527C2.82451 21 1.56412 21 1.12891 20.1706C0.693705 19.3412 1.38927 18.2648 2.7804 16.112L10.0644 4.83965C10.8608 3.60728 11.2589 2.9911 11.8202 3.0001C13.0469 3.01976 13.5 4 16 8" stroke="black" stroke-width="1.5" stroke-linecap="round" stroke-linejoin="round"/>
<path d="M9 7C9.19944 7.58943 9.32706 8.50266 9.75554 8.96655C10.0065 9.23823 10.39 9.34981 10.7505 9.25601C11.2931 9.11485 11.6151 8.53558 12.1267 8.33278C12.3662 8.23783 12.6338 8.23783 12.8733 8.33278C13.5154 8.5873 13.9276 9.39686 14.6397 9.49121C15.3239 9.58188 15.6663 8.9708 16 8.47768" stroke="black" stroke-width="1.5" stroke-linecap="round" stroke-linejoin="round"/>
</svg>
