<svg width="24" height="24" viewBox="0 0 24 24" fill="none" xmlns="http://www.w3.org/2000/svg">
<path d="M8 6C8 4.9 7.1 4 6 4C4.9 4 4 4.9 4 6C4 6.7 4.4 7.4 5 7.7V20H7V7.7C7.6 7.4 8 6.7 8 6V6Z" fill="black"/>
<path d="M11.6 6C12.8 6 13.2 6.2 13.7 6.4C14.2 6.7 14.8 7 16 7C17.2 7 18.2 6.8 19 6.5V12.8C18.8 13.1 18.1 14 16 14C15.1 14 14.7 13.8 14.1 13.6C13.4 13.3 12.6 13 11 13C10.2 13 9.5 13.2 9 13.5V8.2C9.2 7.7 10 6 11.6 6ZM20 5C20 5 18.4 6 16 6C13.9 6 14.2 5 11.6 5C9 5 8 8 8 8V16C8 16 8.7 14 11 14C13.7 14 13.8 15 16 15C19.3 15 20 13 20 13V5Z" fill="black"/>
</svg>
