<svg width="206" height="107" viewBox="0 0 206 107" fill="none" xmlns="http://www.w3.org/2000/svg">
<rect width="206" height="106.323" rx="20" fill="black"/>
<path d="M36.9361 68H32.044L43.0362 37.4545H48.3608L59.353 68H54.4609L45.8253 43.0028H45.5866L36.9361 68ZM37.7564 56.0384H53.6257V59.9162H37.7564V56.0384ZM67.5076 60.2294L67.4778 54.7855H68.2534L77.3812 45.0909H82.7207L72.3102 56.1278H71.6092L67.5076 60.2294ZM63.4061 68V37.4545H67.8656V68H63.4061ZM77.8734 68L69.6703 57.1122L72.7427 53.995L83.3471 68H77.8734ZM93.4519 68.5071C92.0002 68.5071 90.6877 68.2386 89.5144 67.7017C88.3411 67.1548 87.4114 66.3643 86.7253 65.3303C86.0492 64.2962 85.7111 63.0284 85.7111 61.527C85.7111 60.2344 85.9597 59.1705 86.4569 58.3352C86.954 57.5 87.6252 56.8388 88.4703 56.3516C89.3155 55.8643 90.2601 55.4964 91.3042 55.2479C92.3482 54.9993 93.4121 54.8104 94.4959 54.6811C95.8681 54.522 96.9817 54.3928 97.8368 54.2933C98.6919 54.1839 99.3134 54.0099 99.7012 53.7713C100.089 53.5327 100.283 53.1449 100.283 52.608V52.5036C100.283 51.201 99.915 50.1918 99.1792 49.4759C98.4533 48.7599 97.3695 48.402 95.9277 48.402C94.4263 48.402 93.2431 48.7351 92.378 49.4013C91.5229 50.0575 90.9313 50.7884 90.6032 51.5938L86.4121 50.6392C86.9093 49.2472 87.6351 48.1236 88.5897 47.2685C89.5542 46.4034 90.6628 45.777 91.9157 45.3892C93.1685 44.9915 94.486 44.7926 95.8681 44.7926C96.7828 44.7926 97.7523 44.902 98.7765 45.1207C99.8105 45.3295 100.775 45.7173 101.67 46.2841C102.575 46.8509 103.316 47.6612 103.892 48.7152C104.469 49.7592 104.757 51.1165 104.757 52.7869V68H100.402V64.8679H100.223C99.9348 65.4446 99.5023 66.0114 98.9256 66.5682C98.3489 67.125 97.6081 67.5874 96.7033 67.9553C95.7985 68.3232 94.7147 68.5071 93.4519 68.5071ZM94.4213 64.9276C95.6543 64.9276 96.7083 64.6839 97.5833 64.1967C98.4682 63.7095 99.1394 63.0732 99.5968 62.2876C100.064 61.4922 100.298 60.642 100.298 59.7372V56.7841C100.139 56.9432 99.8304 57.0923 99.373 57.2315C98.9256 57.3608 98.4135 57.4751 97.8368 57.5746C97.2601 57.6641 96.6983 57.7486 96.1515 57.8281C95.6046 57.8977 95.1472 57.9574 94.7793 58.0071C93.9142 58.1165 93.1238 58.3004 92.4078 58.5589C91.7019 58.8175 91.1351 59.1903 90.7076 59.6776C90.29 60.1548 90.0811 60.7912 90.0811 61.5866C90.0811 62.6903 90.4888 63.5256 91.3042 64.0923C92.1195 64.6491 93.1586 64.9276 94.4213 64.9276ZM111.055 68V37.4545H115.515V48.8047H115.783C116.042 48.3274 116.414 47.7756 116.902 47.1491C117.389 46.5227 118.065 45.9759 118.93 45.5085C119.795 45.0312 120.939 44.7926 122.36 44.7926C124.21 44.7926 125.86 45.2599 127.312 46.1946C128.764 47.1293 129.902 48.4766 130.728 50.2365C131.563 51.9964 131.98 54.1143 131.98 56.5902C131.98 59.0661 131.568 61.1889 130.743 62.9588C129.917 64.7187 128.784 66.076 127.342 67.0305C125.9 67.9751 124.255 68.4474 122.405 68.4474C121.013 68.4474 119.875 68.2138 118.99 67.7464C118.115 67.2791 117.429 66.7322 116.931 66.1058C116.434 65.4794 116.051 64.9226 115.783 64.4354H115.41V68H111.055ZM115.425 56.5455C115.425 58.1562 115.659 59.5682 116.126 60.7812C116.593 61.9943 117.27 62.9439 118.154 63.63C119.039 64.3061 120.123 64.6442 121.406 64.6442C122.738 64.6442 123.852 64.2912 124.747 63.5852C125.642 62.8693 126.318 61.8999 126.775 60.6768C127.243 59.4538 127.476 58.0767 127.476 56.5455C127.476 55.0341 127.248 53.6768 126.79 52.4737C126.343 51.2706 125.667 50.321 124.762 49.625C123.867 48.929 122.748 48.581 121.406 48.581C120.113 48.581 119.02 48.9141 118.125 49.5803C117.24 50.2464 116.569 51.1761 116.111 52.3693C115.654 53.5625 115.425 54.9545 115.425 56.5455ZM143.655 68.5071C142.203 68.5071 140.891 68.2386 139.718 67.7017C138.544 67.1548 137.615 66.3643 136.928 65.3303C136.252 64.2962 135.914 63.0284 135.914 61.527C135.914 60.2344 136.163 59.1705 136.66 58.3352C137.157 57.5 137.828 56.8388 138.673 56.3516C139.519 55.8643 140.463 55.4964 141.507 55.2479C142.551 54.9993 143.615 54.8104 144.699 54.6811C146.071 54.522 147.185 54.3928 148.04 54.2933C148.895 54.1839 149.517 54.0099 149.904 53.7713C150.292 53.5327 150.486 53.1449 150.486 52.608V52.5036C150.486 51.201 150.118 50.1918 149.382 49.4759C148.656 48.7599 147.573 48.402 146.131 48.402C144.629 48.402 143.446 48.7351 142.581 49.4013C141.726 50.0575 141.134 50.7884 140.806 51.5938L136.615 50.6392C137.112 49.2472 137.838 48.1236 138.793 47.2685C139.757 46.4034 140.866 45.777 142.119 45.3892C143.372 44.9915 144.689 44.7926 146.071 44.7926C146.986 44.7926 147.955 44.902 148.98 45.1207C150.014 45.3295 150.978 45.7173 151.873 46.2841C152.778 46.8509 153.519 47.6612 154.095 48.7152C154.672 49.7592 154.96 51.1165 154.96 52.7869V68H150.605V64.8679H150.426C150.138 65.4446 149.705 66.0114 149.129 66.5682C148.552 67.125 147.811 67.5874 146.906 67.9553C146.002 68.3232 144.918 68.5071 143.655 68.5071ZM144.624 64.9276C145.857 64.9276 146.911 64.6839 147.786 64.1967C148.671 63.7095 149.343 63.0732 149.8 62.2876C150.267 61.4922 150.501 60.642 150.501 59.7372V56.7841C150.342 56.9432 150.034 57.0923 149.576 57.2315C149.129 57.3608 148.617 57.4751 148.04 57.5746C147.463 57.6641 146.901 57.7486 146.355 57.8281C145.808 57.8977 145.35 57.9574 144.982 58.0071C144.117 58.1165 143.327 58.3004 142.611 58.5589C141.905 58.8175 141.338 59.1903 140.911 59.6776C140.493 60.1548 140.284 60.7912 140.284 61.5866C140.284 62.6903 140.692 63.5256 141.507 64.0923C142.323 64.6491 143.362 64.9276 144.624 64.9276ZM160.9 68V45.0909H165.211V48.7301H165.449C165.867 47.4972 166.603 46.5277 167.657 45.8217C168.721 45.1058 169.924 44.7479 171.266 44.7479C171.544 44.7479 171.873 44.7578 172.25 44.7777C172.638 44.7976 172.941 44.8224 173.16 44.8523V49.1179C172.981 49.0682 172.663 49.0135 172.206 48.9538C171.748 48.8842 171.291 48.8494 170.833 48.8494C169.779 48.8494 168.84 49.0732 168.015 49.5206C167.199 49.9581 166.553 50.5696 166.076 51.3551C165.598 52.1307 165.36 53.0156 165.36 54.0099V68H160.9Z" fill="white"/>
</svg>
