<svg width="100" height="100" viewBox="0 0 100 100" fill="none" xmlns="http://www.w3.org/2000/svg">
<path d="M41.6667 29.1665V68.3332C40 67.4998 37.9167 66.6665 35.4167 66.6665C29.5833 66.6665 25 70.4165 25 74.9998C25 79.5832 29.5833 83.3332 35.4167 83.3332C41.25 83.3332 45.8333 79.5832 45.8333 74.9998V44.5832L75 34.9998V56.2498C73.3333 54.9998 71.25 54.1665 68.75 54.1665C62.9167 54.1665 58.3333 57.9165 58.3333 62.4998C58.3333 67.0832 62.9167 70.8332 68.75 70.8332C74.5833 70.8332 79.1667 67.0832 79.1667 62.4998V16.6665L41.6667 29.1665Z" fill="black"/>
</svg>
