<svg width="20" height="19" viewBox="0 0 20 19" fill="none" xmlns="http://www.w3.org/2000/svg">
<path d="M13.1137 12.8952C11.1957 14.1179 10.0927 16.3704 9.73145 17.0207V6.33317C10.0286 5.79823 10.8278 4.35965 12.1698 3.23862C12.9424 2.59323 13.3287 2.27053 13.9051 2.54007C14.4814 2.80962 14.4814 3.41657 14.4814 4.63046V10.7621C14.4814 11.4081 14.4814 11.7311 14.3582 11.9557C14.235 12.1803 13.8613 12.4186 13.1137 12.8952L13.1137 12.8952Z" stroke="black" stroke-width="1.5" stroke-linecap="round" stroke-linejoin="round"/>
<path d="M9.73112 6.1794C9.18733 5.60819 7.61084 4.25156 4.96573 3.77592C3.62571 3.53495 2.95569 3.41447 2.38507 3.87626C1.81445 4.33805 1.81445 5.08794 1.81445 6.58772V11.9777C1.81445 13.349 1.81445 14.0347 2.18068 14.4628C2.5469 14.8908 3.35318 15.0358 4.96573 15.3258C6.40321 15.5843 7.5251 15.9962 8.33714 16.41C9.13609 16.8172 9.53558 17.0208 9.73112 17.0208C9.92666 17.0208 10.3262 16.8172 11.1251 16.41C11.9371 15.9962 13.059 15.5843 14.4965 15.3258C16.1091 15.0358 16.9153 14.8908 17.2816 14.4628C17.6478 14.0347 17.6478 13.349 17.6478 11.9777V6.58772C17.6478 5.08794 17.6478 4.33805 17.0772 3.87626C16.5065 3.41447 15.2728 3.77592 14.4811 4.35417" stroke="black" stroke-width="1.5" stroke-linecap="round" stroke-linejoin="round"/>
</svg>
