<svg width="100" height="100" viewBox="0 0 100 100" fill="none" xmlns="http://www.w3.org/2000/svg">
<path d="M67.5069 58.2236C62.9235 57.8069 60.4235 64.0569 57.0902 65.7236C51.6735 68.6403 41.6735 58.2236 41.6735 58.2236C41.6735 58.2236 31.257 48.2236 33.757 42.8069C35.8404 39.4737 42.0902 36.9737 41.6735 32.3903C41.257 28.2237 32.0904 13.2237 27.507 17.3903C17.507 26.557 16.6737 30.307 16.6737 37.807C16.257 50.7236 32.9237 66.9736 32.9237 66.9736C34.5904 68.6403 49.1735 83.6403 62.0902 83.2236C69.5902 83.2236 73.3402 82.3903 82.5069 72.3903C86.6735 67.8069 72.0902 58.6403 67.5069 58.2236Z" fill="black"/>
</svg>
