<svg width="18" height="17" viewBox="0 0 18 17" fill="none" xmlns="http://www.w3.org/2000/svg">
<path d="M3.06188 8.45901C2.39037 7.2881 2.06613 6.33197 1.87062 5.36278C1.58147 3.92937 2.24318 2.52916 3.33938 1.63571C3.80268 1.25811 4.33377 1.38712 4.60774 1.87862L5.22624 2.98823C5.71648 3.86774 5.9616 4.30749 5.91298 4.77371C5.86436 5.23994 5.53379 5.61966 4.87263 6.37909L3.06188 8.45901ZM3.06188 8.45901C4.42109 10.829 6.55412 12.9632 8.9269 14.324M8.9269 14.324C10.0978 14.9955 11.0539 15.3198 12.0231 15.5153C13.4565 15.8044 14.8567 15.1427 15.7502 14.0465C16.1278 13.5832 15.9988 13.0521 15.5073 12.7782L14.3977 12.1597C13.5182 11.6694 13.0784 11.4243 12.6122 11.4729C12.146 11.5215 11.7662 11.8521 11.0068 12.5133L8.9269 14.324Z" stroke="black" stroke-width="1.5" stroke-linejoin="round"/>
</svg>
