<svg width="25" height="25" viewBox="0 0 25 25" fill="none" xmlns="http://www.w3.org/2000/svg">
<g clip-path="url(#clip0_201_98462)">
<path d="M12.8008 18.0312C13.6211 18.0312 13.9961 17.4688 13.9961 16.7188C13.9961 16.5898 13.9961 16.4492 13.9961 16.3203C14.0195 14.7734 14.5703 14.1289 16.4453 12.8398C18.4609 11.4805 19.7383 9.91016 19.7383 7.64844C19.7383 4.13281 16.8789 2.11719 13.3164 2.11719C10.668 2.11719 8.34766 3.37109 7.35156 5.63281C7.10547 6.18359 7 6.72266 7 7.16797C7 7.83594 7.38672 8.30469 8.10156 8.30469C8.69922 8.30469 9.09766 7.95312 9.27344 7.37891C9.87109 5.15234 11.3477 4.30859 13.2344 4.30859C15.5195 4.30859 17.3125 5.59766 17.3125 7.63672C17.3125 9.3125 16.2695 10.25 14.7695 11.3047C12.9297 12.582 11.582 13.9531 11.582 16.0156C11.582 16.2617 11.582 16.5078 11.582 16.7539C11.582 17.5039 11.9922 18.0312 12.8008 18.0312ZM12.8008 24.4414C13.7383 24.4414 14.4766 23.6914 14.4766 22.7773C14.4766 21.8516 13.7383 21.1133 12.8008 21.1133C11.8867 21.1133 11.1367 21.8516 11.1367 22.7773C11.1367 23.6914 11.8867 24.4414 12.8008 24.4414Z" fill="black"/>
</g>
<defs>
<clipPath id="clip0_201_98462">
<rect width="12.7383" height="22.4414" fill="white" transform="translate(7 2)"/>
</clipPath>
</defs>
</svg>
