<svg width="20" height="19" viewBox="0 0 20 19" fill="none" xmlns="http://www.w3.org/2000/svg">
<g clip-path="url(#clip0_1334_250)">
<path d="M10.9445 2.7268L12.3377 5.53619C12.5277 5.92727 13.0343 6.30238 13.4618 6.37422L15.9869 6.79722C17.6017 7.06858 17.9817 8.2498 16.8181 9.41506L14.8549 11.3944C14.5225 11.7296 14.3404 12.3761 14.4433 12.839L15.0053 15.2892C15.4486 17.2287 14.4275 17.9789 12.7256 16.9653L10.3588 15.5526C9.93131 15.2972 9.22681 15.2972 8.79144 15.5526L6.42462 16.9653C4.73064 17.9789 3.70159 17.2207 4.14487 15.2892L4.70689 12.839C4.8098 12.3761 4.62773 11.7296 4.29527 11.3944L2.33215 9.41506C1.17645 8.2498 1.54849 7.06858 3.16331 6.79722L5.68845 6.37422C6.10799 6.30238 6.6146 5.92727 6.80458 5.53619L8.19776 2.7268C8.95767 1.20239 10.1925 1.20239 10.9445 2.7268Z" stroke="black" stroke-width="1.5" stroke-linecap="round" stroke-linejoin="round"/>
</g>
<defs>
<clipPath id="clip0_1334_250">
<rect width="19" height="19" fill="white" transform="translate(0.0771484)"/>
</clipPath>
</defs>
</svg>
